<svg xmlns="http://www.w3.org/2000/svg" viewBox="0 0 64 64">
  <title>Guitar</title>
  <rect width="64" height="64" rx="8" fill="#ffffff"/>
  <g transform="translate(6,6) scale(0.9)">
    <path d="M32 4c-2 0-4 1-5 2l-9 9c-1 1-2 3-2 5 0 3 1 6 3 8l1 1-8 8c-2 2-3 5-3 8 0 3 1 6 3 8 2 2 5 3 8 3 3 0 6-1 8-3l8-8 1 1c2 2 5 3 8 3 3 0 6-1 8-3 2-2 3-5 3-8 0-3-1-6-3-8l-8-8 1-1c2-2 3-5 3-8 0-2-1-4-2-5l-9-9c-1-1-3-2-5-2-2 0-3 0-5 0z" fill="#ef6c00" opacity="0.95"/>
    <path d="M24 24l16 16" stroke="#fff" stroke-width="2" stroke-linecap="round"/>
    <circle cx="38" cy="26" r="3" fill="#fff"/>
  </g>
</svg>